<svg width="100" height="70" viewBox="0 0 100 70" fill="none" xmlns="http://www.w3.org/2000/svg">
<path d="M84 30.4063C84.6406 28.7344 85 26.9063 85 25C85 16.7188 78.2812 10 70 10C66.9219 10 64.0469 10.9375 61.6719 12.5312C57.3437 5.03125 49.2656 0 40 0C26.1875 0 15 11.1875 15 25C15 25.4219 15.0156 25.8438 15.0312 26.2656C6.28125 29.3438 0 37.6875 0 47.5C0 59.9219 10.0781 70 22.5 70H80C91.0469 70 100 61.0469 100 50C100 40.3281 93.125 32.25 84 30.4063Z" fill="#1D7373"/>
<path d="M14.5725 39.3177C12.8204 43.4895 15.2355 53.5835 25.5338 57.2748" stroke="#E6E7E6" stroke-width="3" stroke-linecap="round"/>
<path d="M85.3784 62.0128C89.1336 62.7816 95.1362 59.0153 92.9685 49.6775" stroke="#EAEBE7" stroke-width="3" stroke-linecap="round"/>
<path d="M65 9.5C62.3657 10.629 55.699 15.8063 54.9462 19.1935" stroke="#E8EAE5" stroke-width="2" stroke-linecap="round"/>
<path d="M29.84 38.6C29.84 36.952 30.208 35.48 30.944 34.184C31.696 32.872 32.712 31.856 33.992 31.136C35.288 30.4 36.736 30.032 38.336 30.032C40.208 30.032 41.848 30.512 43.256 31.472C44.664 32.432 45.648 33.76 46.208 35.456H42.344C41.96 34.656 41.416 34.056 40.712 33.656C40.024 33.256 39.224 33.056 38.312 33.056C37.336 33.056 36.464 33.288 35.696 33.752C34.944 34.2 34.352 34.84 33.92 35.672C33.504 36.504 33.296 37.48 33.296 38.6C33.296 39.704 33.504 40.68 33.92 41.528C34.352 42.36 34.944 43.008 35.696 43.472C36.464 43.92 37.336 44.144 38.312 44.144C39.224 44.144 40.024 43.944 40.712 43.544C41.416 43.128 41.96 42.52 42.344 41.72H46.208C45.648 43.432 44.664 44.768 43.256 45.728C41.864 46.672 40.224 47.144 38.336 47.144C36.736 47.144 35.288 46.784 33.992 46.064C32.712 45.328 31.696 44.312 30.944 43.016C30.208 41.72 29.84 40.248 29.84 38.6ZM56.8539 47.168C55.2859 47.168 53.8459 46.8 52.5339 46.064C51.2219 45.328 50.1819 44.312 49.4139 43.016C48.6459 41.704 48.2619 40.224 48.2619 38.576C48.2619 36.944 48.6459 35.48 49.4139 34.184C50.1819 32.872 51.2219 31.848 52.5339 31.112C53.8459 30.376 55.2859 30.008 56.8539 30.008C58.4379 30.008 59.8779 30.376 61.1739 31.112C62.4859 31.848 63.5179 32.872 64.2699 34.184C65.0379 35.48 65.4219 36.944 65.4219 38.576C65.4219 40.224 65.0379 41.704 64.2699 43.016C63.5179 44.312 62.4859 45.328 61.1739 46.064C59.8619 46.8 58.4219 47.168 56.8539 47.168ZM56.8539 44.168C57.8619 44.168 58.7499 43.944 59.5179 43.496C60.2859 43.032 60.8859 42.376 61.3179 41.528C61.7499 40.68 61.9659 39.696 61.9659 38.576C61.9659 37.456 61.7499 36.48 61.3179 35.648C60.8859 34.8 60.2859 34.152 59.5179 33.704C58.7499 33.256 57.8619 33.032 56.8539 33.032C55.8459 33.032 54.9499 33.256 54.1659 33.704C53.3979 34.152 52.7979 34.8 52.3659 35.648C51.9339 36.48 51.7179 37.456 51.7179 38.576C51.7179 39.696 51.9339 40.68 52.3659 41.528C52.7979 42.376 53.3979 43.032 54.1659 43.496C54.9499 43.944 55.8459 44.168 56.8539 44.168Z" fill="#E9EAE5"/>
<path d="M66.261 51.946C67.093 51.2527 67.756 50.6763 68.25 50.217C68.744 49.749 69.1557 49.2637 69.485 48.761C69.8143 48.2583 69.979 47.7643 69.979 47.279C69.979 46.837 69.875 46.4903 69.667 46.239C69.459 45.9877 69.1383 45.862 68.705 45.862C68.2717 45.862 67.938 46.0093 67.704 46.304C67.47 46.59 67.3487 46.9843 67.34 47.487H65.572C65.6067 46.447 65.9143 45.6583 66.495 45.121C67.0843 44.5837 67.8297 44.315 68.731 44.315C69.719 44.315 70.4773 44.5793 71.006 45.108C71.5347 45.628 71.799 46.317 71.799 47.175C71.799 47.851 71.617 48.4967 71.253 49.112C70.889 49.7273 70.473 50.2647 70.005 50.724C69.537 51.1747 68.926 51.7207 68.172 52.362H72.007V53.87H65.585V52.518L66.261 51.946Z" fill="#E9EAE5"/>
</svg>
