<svg width="74" height="55" viewBox="0 0 74 55" fill="none" xmlns="http://www.w3.org/2000/svg">
<path d="M72.149 47.6668H1.85029C0.828188 47.6668 0.000328671 48.4872 0.000328671 49.5001V53.1667C0.000328671 54.1796 0.828188 55 1.85029 55H72.149C73.1711 55 73.9989 54.1796 73.9989 53.1667V49.5001C73.9989 48.4872 73.1711 47.6668 72.149 47.6668ZM9.31375 35.4375C10.0399 36.2212 11.0596 36.6658 12.1268 36.6647L27.2202 36.644C28.4114 36.6424 29.5854 36.363 30.6473 35.8282L64.2889 18.9102C67.3807 17.3554 70.1522 15.1359 72.038 12.229C74.155 8.96569 74.3851 6.60416 73.5492 4.93586C72.7155 3.2664 70.6886 2.04038 66.8141 1.79059C63.3628 1.5683 59.9299 2.46891 56.8382 4.02264L45.4482 9.75058L20.1615 0.348008C19.8574 0.145036 19.5042 0.0262274 19.1383 0.0038673C18.7724 -0.0184928 18.4072 0.0564069 18.0803 0.220822L10.4781 4.04441C9.24437 4.6643 8.94607 6.29594 9.8803 7.31342L27.9429 18.5539L16.0095 24.5557L7.64415 20.3769C7.35595 20.2329 7.03761 20.1581 6.71485 20.1585C6.39208 20.1589 6.07394 20.2345 5.78609 20.3792L1.14615 22.7132C-0.0609514 23.3205 -0.378914 24.904 0.502132 25.9306L9.31375 35.4375Z" fill="#EDEDEA"/>
</svg>
