<svg width="55" height="55" viewBox="0 0 55 55" fill="none" xmlns="http://www.w3.org/2000/svg">
<path d="M36.0938 48.125H1.71875C0.773437 48.125 0 48.8984 0 49.8438V53.2812C0 54.2266 0.773437 55 1.71875 55H36.0938C37.0391 55 37.8125 54.2266 37.8125 53.2812V49.8438C37.8125 48.8984 37.0391 48.125 36.0938 48.125ZM52.9805 11.5264L44.2793 2.8252C43.6133 2.15918 42.5176 2.15918 41.8516 2.8252L40.6377 4.03906C39.9717 4.70508 39.9717 5.80078 40.6377 6.4668L44.6875 10.5166V17.1875C44.6875 20.2061 46.9326 22.6982 49.8438 23.1172V40.3906C49.8438 41.8086 48.6836 42.9688 47.2656 42.9688C45.8477 42.9688 44.6875 41.8086 44.6875 40.3906V36.9531C44.6875 31.7324 40.4551 27.5 35.2344 27.5H34.375V6.875C34.375 3.08301 31.292 0 27.5 0H10.3125C6.52051 0 3.4375 3.08301 3.4375 6.875V44.6875H34.375V32.6562H35.2344C37.6084 32.6562 39.5312 34.5791 39.5312 36.9531V39.9395C39.5312 43.9893 42.4316 47.6738 46.46 48.0928C51.0791 48.5547 55 44.9238 55 40.3906V16.3926C55 14.5664 54.2695 12.8154 52.9805 11.5264ZM27.5 20.625H10.3125V6.875H27.5V20.625Z" fill="#EDEDEA"/>
</svg>
