<svg width="74" height="56" viewBox="0 0 74 56" fill="none" xmlns="http://www.w3.org/2000/svg">
<path d="M71.0797 46.1079H9.17158V2.54289C9.17158 1.27607 8.14551 0.25 6.87868 0.25H2.29289C1.02607 0.25 0 1.27607 0 2.54289V50.6937C0 53.2259 2.05357 55.2795 4.58579 55.2795H71.0797C72.3466 55.2795 73.3726 54.2534 73.3726 52.9866V48.4008C73.3726 47.134 72.3466 46.1079 71.0797 46.1079ZM66.494 4.83579H49.5753C46.5114 4.83579 44.9766 8.54025 47.1434 10.707L51.7865 15.3501L41.2721 25.8659L30.7578 15.3516C28.9664 13.5603 26.063 13.5603 24.2732 15.3516L14.4295 25.1953C13.5338 26.0909 13.5338 27.5426 14.4295 28.4383L17.6711 31.6799C18.5667 32.5755 20.0184 32.5755 20.9141 31.6799L27.5147 25.0778L38.0291 35.5921C39.8204 37.3834 42.7238 37.3834 44.5137 35.5921L58.2711 21.8347L62.9142 26.4779C65.081 28.6446 68.7854 27.1098 68.7854 24.0459V7.12868C68.7868 5.86186 67.7608 4.83579 66.494 4.83579Z" fill="#EDEDEA"/>
</svg>
