<svg width="75" height="109" viewBox="0 0 75 109" fill="none" xmlns="http://www.w3.org/2000/svg">
<path d="M20.4498 96.725C20.452 98.064 20.8479 99.3754 21.5909 100.491L25.2291 105.96C25.8506 106.895 26.6936 107.662 27.6831 108.192C28.6725 108.722 29.7778 109 30.9004 109H44.0376C45.1603 109 46.2655 108.722 47.255 108.192C48.2444 107.662 49.0874 106.895 49.7089 105.96L53.3471 100.491C54.0898 99.3753 54.4867 98.0652 54.4882 96.725L54.4967 88.5608H20.4392L20.4498 96.725ZM0 37.4681C0 46.9139 3.50198 55.5315 9.27332 62.1161C12.7902 66.129 18.2912 74.5125 20.3881 81.5845C20.3966 81.6399 20.403 81.6952 20.4115 81.7506H54.5244C54.5329 81.6952 54.5393 81.642 54.5478 81.5845C56.6447 74.5125 62.1457 66.129 65.6626 62.1161C71.4339 55.5315 74.9359 46.9139 74.9359 37.4681C74.9359 16.7352 58.0987 -0.0636843 37.3509 0.000181502C15.6344 0.0661762 0 17.6633 0 37.4681ZM37.468 20.4372C28.0775 20.4372 20.4371 28.0777 20.4371 37.4681C20.4371 39.3501 18.9128 40.8743 17.0309 40.8743C15.149 40.8743 13.6247 39.3501 13.6247 37.4681C13.6247 24.3203 24.3201 13.6249 37.468 13.6249C39.3499 13.6249 40.8741 15.1492 40.8741 17.0311C40.8741 18.913 39.3499 20.4372 37.468 20.4372Z" fill="#EDEDEA"/>
</svg>
