<svg width="61" height="55" viewBox="0 0 61 55" fill="none" xmlns="http://www.w3.org/2000/svg">
<path d="M28.7054 16.0206L34.4526 17.535C34.6478 17.5807 34.8224 17.6895 34.9494 17.8446C35.0764 17.9997 35.1486 18.1924 35.1547 18.3928C35.1547 18.88 34.7216 19.2824 34.1889 19.2824H30.4189C30.0126 19.2812 29.6103 19.2021 29.2338 19.0494C28.6789 18.8164 28.0393 18.8694 27.6136 19.2612L25.6014 21.1145C25.5084 21.1959 25.4281 21.2909 25.3632 21.3961C25.2801 21.5324 25.2248 21.6838 25.2005 21.8415C25.1762 21.9992 25.1834 22.1602 25.2215 22.3151C25.2597 22.4701 25.3282 22.6159 25.4231 22.7443C25.5179 22.8727 25.6372 22.981 25.7741 23.063C26.8884 23.7318 28.136 24.1475 29.4287 24.2809V26.1553C29.4287 27.0872 30.2579 27.8497 31.2682 27.8497H33.1077C34.119 27.8497 34.9482 27.0872 34.9482 26.1553V24.2915C38.4355 23.9102 41.0735 21.0086 40.6139 17.6197C40.2803 15.184 38.2354 13.246 35.6832 12.5683L29.9359 11.0539C29.7408 11.0083 29.5661 10.8994 29.4391 10.7443C29.3122 10.5892 29.24 10.3965 29.2338 10.1961C29.2338 9.70897 29.667 9.30655 30.1996 9.30655H33.9697C34.3774 9.30718 34.7812 9.38628 35.159 9.53953C35.7128 9.77251 36.3535 9.71956 36.7792 9.32773L38.7913 7.47447C38.8813 7.39474 38.9588 7.30192 39.0212 7.19913C39.1049 7.06291 39.1609 6.91144 39.1858 6.75348C39.2107 6.59551 39.204 6.43417 39.1662 6.27879C39.1284 6.1234 39.0602 5.97705 38.9655 5.84819C38.8708 5.71933 38.7515 5.61051 38.6145 5.52802C37.4998 4.85929 36.2518 4.44355 34.9588 4.31016V2.4336C34.9588 1.50168 34.1307 0.739197 33.1193 0.739197H31.2798C30.2685 0.739197 29.4403 1.50168 29.4403 2.4336V4.29745C25.9573 4.6787 23.314 7.58037 23.7736 10.9692C24.1061 13.4049 26.1574 15.3429 28.7054 16.0206ZM59.8624 35.4852C58.6127 34.352 56.6642 34.4261 55.351 35.4852L45.5658 43.3112C44.3646 44.2748 42.8697 44.7981 41.3298 44.7938H28.8049C28.3555 44.7938 27.9246 44.6153 27.6068 44.2975C27.289 43.9798 27.1105 43.5488 27.1105 43.0994C27.1105 42.65 27.289 42.219 27.6068 41.9013C27.9246 41.5835 28.3555 41.405 28.8049 41.405H37.0959C38.7797 41.405 40.3481 40.2507 40.6171 38.588C40.6502 38.3971 40.6665 38.2036 40.6658 38.0098C40.6641 37.1121 40.3063 36.2518 39.671 35.6177C39.0356 34.9835 38.1746 34.6274 37.277 34.6274H20.3329C17.4753 34.6281 14.7048 35.6111 12.4857 37.4115L7.5613 41.405H1.69441C1.24502 41.405 0.814044 41.5835 0.496281 41.9013C0.178517 42.219 0 42.65 0 43.0994L0 53.2658C0 53.7152 0.178517 54.1462 0.496281 54.464C0.814044 54.7817 1.24502 54.9603 1.69441 54.9603H39.4765C41.0159 54.9615 42.5099 54.4386 43.7125 53.4776L59.7279 40.6637C60.1131 40.3556 60.4265 39.967 60.646 39.5252C60.8655 39.0834 60.9859 38.5991 60.9988 38.1059C61.0117 37.6128 60.9168 37.1227 60.7207 36.6701C60.5246 36.2174 60.232 35.813 59.8634 35.4852H59.8624Z" fill="#EDEDEA"/>
</svg>
