<svg width="49" height="54" viewBox="0 0 49 54" fill="none" xmlns="http://www.w3.org/2000/svg">
<path d="M49 52.875C49 53.505 48.4984 54 47.8853 54H1.11465C0.501592 54 0 53.505 0 52.875C0 48.6225 4.19108 43.6838 9.58599 43.6838C10.5892 43.6838 11.5032 43.9087 12.3169 44.1112C12.9745 44.28 13.5987 44.4263 14.1115 44.4263C14.5908 44.4263 14.914 44.3025 15.2038 43.9763C17.4889 41.2313 20.2755 39.7687 23.2293 39.7687H23.3853V34.5712C20.3758 34.74 17.4443 35.6287 14.836 37.1812C14.6268 37.3051 14.3834 37.3567 14.1425 37.3283C13.9017 37.2999 13.6766 37.1929 13.5014 37.0237C13.3262 36.8545 13.2104 36.6323 13.1717 36.3907C13.1329 36.1491 13.1733 35.9014 13.2866 35.685L18.3917 25.8975C17.2771 26.2913 16.207 26.7975 15.1815 27.405C14.7357 27.675 14.1672 27.5963 13.8105 27.225C13.4538 26.8425 13.3981 26.28 13.6656 25.8412L20.1194 15.5475C19.7739 15.6937 19.4506 15.8738 19.1274 16.065C19.0571 16.2276 18.9498 16.3712 18.8141 16.484C18.6784 16.5968 18.5183 16.6757 18.3467 16.7142C18.1751 16.7527 17.9969 16.7497 17.8266 16.7055C17.6564 16.6613 17.4989 16.5771 17.367 16.4598C17.2351 16.3425 17.1325 16.1954 17.0677 16.0305C17.0028 15.8656 16.9774 15.6876 16.9936 15.5109C17.0099 15.3343 17.0672 15.164 17.161 15.0139C17.2548 14.8639 17.3824 14.7383 17.5334 14.6475L23.4745 0.68625C23.6529 0.27 24.0541 0 24.5 0C24.9459 0 25.3471 0.27 25.5255 0.68625L31.3885 14.4563C31.5111 14.6363 31.578 14.8613 31.578 15.0975C31.578 15.7163 31.0541 16.2675 30.4522 16.2225C30.2516 16.2225 30.051 16.1663 29.8726 16.065C29.5537 15.8703 29.2223 15.6975 28.8806 15.5475L35.2229 25.6725C35.4124 25.875 35.5239 26.145 35.5239 26.4375C35.5239 27.0675 35.0334 27.5625 34.3981 27.5625C34.194 27.5663 33.9931 27.5117 33.8185 27.405C32.793 26.7975 31.7229 26.2913 30.6083 25.8975L35.7134 35.685C35.9475 36.135 35.8583 36.675 35.5016 37.0237C35.2898 37.2375 35.0111 37.3387 34.7325 37.3387C34.5318 37.3387 34.3424 37.2825 34.164 37.1812C31.562 35.6337 28.6302 34.7387 25.6146 34.5712V39.78C28.8806 39.8813 31.7787 41.4225 33.2389 43.875C33.6178 44.2125 34.0303 44.3588 34.6099 44.3588C35.1895 44.3588 35.8583 44.2237 36.5605 44.0662C37.3631 43.8975 38.2771 43.7063 39.2134 43.6838H39.414C44.8089 43.6838 49 48.6225 49 52.875Z" fill="#EDEDEA"/>
</svg>
